RobotoWide-Regular.ufo
<glyph name="A" format="1">
  <advance width="1559"/>
  <unicode hex="0041"/>
  <outline>
    <contour>
      <point x="802" y="1320" type="line"/>
      <point x="804" y="1456" type="line"/>
      <point x="659" y="1456" type="line"/>
      <point x="12" y="0" type="line"/>
      <point x="235" y="0" type="line"/>
    </contour>
    <contour>
      <point x="1324" y="0" type="line"/>
      <point x="1547" y="0" type="line"/>
      <point x="839" y="1456" type="line"/>
      <point x="694" y="1456" type="line"/>
      <point x="696" y="1320" type="line"/>
    </contour>
    <contour>
      <point x="1223" y="543" type="line"/>
      <point x="355" y="543" type="line"/>
      <point x="355" y="376" type="line"/>
      <point x="1223" y="376" type="line"/>
    </contour>
    <contour>
      <point x="663.0" y="1600.0" type="move" name="top"/>
    </contour>
    <contour>
      <point x="675.0" y="0.0" type="move" name="bottom"/>
    </contour>
    <contour>
      <point x="1303.0" y="0.0" type="move" name="right"/>
    </contour>
    <contour>
      <point x="354.0" y="1454.0" type="move" name="tonos"/>
    </contour>
    <contour>
      <point x="1265.0" y="0.0" type="move" name="ogonek"/>
    </contour>
    <contour>
      <point x="1333.0" y="1600.0" type="move" name="top_dd"/>
    </contour>
    <contour>
      <point x="1333.0" y="-407.0" type="move" name="bottom_dd"/>
    </contour>
    <contour>
      <point x="1333.0" y="1600.0" type="move" name="top0315"/>
    </contour>
  </outline>
</glyph>
<glyph name="B" format="1">
  <advance width="1380"/>
  <unicode hex="0042"/>
  <outline>
    <contour>
      <point x="782" y="678" type="line"/>
      <point x="909" y="726" type="line"/>
      <point x="1130" y="752"/>
      <point x="1262" y="887"/>
      <point x="1262" y="1096" type="curve"/>
      <point x="1262" y="1339"/>
      <point x="1085" y="1456"/>
      <point x="747" y="1456" type="curve"/>
      <point x="220" y="1456" type="line"/>
      <point x="220" y="0" type="line"/>
      <point x="428" y="0" type="line"/>
      <point x="428" y="1289" type="line"/>
      <point x="747" y="1289" type="line"/>
      <point x="968" y="1289"/>
      <point x="1054" y="1214"/>
      <point x="1054" y="1079" type="curve"/>
      <point x="1054" y="927"/>
      <point x="956" y="841"/>
      <point x="751" y="841" type="curve"/>
      <point x="381" y="841" type="line"/>
      <point x="381" y="678" type="line"/>
    </contour>
    <contour>
      <point x="773" y="0" type="line"/>
      <point x="1067" y="0"/>
      <point x="1320" y="148"/>
      <point x="1320" y="422" type="curve" smooth="yes"/>
      <point x="1320" y="610"/>
      <point x="1202" y="764"/>
      <point x="989" y="782" type="curve"/>
      <point x="880" y="841" type="line"/>
      <point x="466" y="841" type="line"/>
      <point x="464" y="678" type="line"/>
      <point x="782" y="678" type="line" smooth="yes"/>
      <point x="1021" y="678"/>
      <point x="1112" y="581"/>
      <point x="1112" y="433" type="curve" smooth="yes"/>
      <point x="1112" y="273"/>
      <point x="999" y="166"/>
      <point x="773" y="166" type="curve" smooth="yes"/>
      <point x="400" y="166" type="line"/>
      <point x="300" y="0" type="line"/>
    </contour>
    <contour>
      <point x="665.0" y="1612.0" type="move" name="top"/>
    </contour>
    <contour>
      <point x="673.0" y="10.0" type="move" name="bottom"/>
    </contour>
    <contour>
      <point x="1334.0" y="1600.0" type="move" name="top_dd"/>
    </contour>
    <contour>
      <point x="1334.0" y="-407.0" type="move" name="bottom_dd"/>
    </contour>
    <contour>
      <point x="1334.0" y="1612.0" type="move" name="top0315"/>
    </contour>
  </outline>
</glyph>
<glyph name="C" format="1">
  <advance width="1497"/>
  <unicode hex="0043"/>
  <outline>
    <contour>
      <point x="1273" y="464" type="line"/>
      <point x="1226" y="266"/>
      <point x="1124" y="146"/>
      <point x="835" y="146" type="curve" smooth="yes"/>
      <point x="506" y="146"/>
      <point x="328" y="385"/>
      <point x="328" y="721" type="curve"/>
      <point x="328" y="766" type="line"/>
      <point x="328" y="1082"/>
      <point x="535" y="1309"/>
      <point x="831" y="1309" type="curve" smooth="yes"/>
      <point x="1117" y="1309"/>
      <point x="1231" y="1184"/>
      <point x="1269" y="987" type="curve"/>
      <point x="1470" y="987" type="line"/>
      <point x="1434" y="1272"/>
      <point x="1227" y="1483"/>
      <point x="828" y="1483" type="curve" smooth="yes"/>
      <point x="420" y="1483"/>
      <point x="120" y="1172"/>
      <point x="120" y="764" type="curve"/>
      <point x="120" y="721" type="line"/>
      <point x="120" y="272"/>
      <point x="409" y="-25"/>
      <point x="828" y="-25" type="curve" smooth="yes"/>
      <point x="1231" y="-25"/>
      <point x="1433" y="192"/>
      <point x="1470" y="464" type="curve"/>
    </contour>
    <contour>
      <point x="683.0" y="1633.0" type="move" name="top"/>
    </contour>
    <contour>
      <point x="683.0" y="-10.0" type="move" name="bottom"/>
    </contour>
    <contour>
      <point x="1337.0" y="1600.0" type="move" name="top_dd"/>
    </contour>
    <contour>
      <point x="1337.0" y="-407.0" type="move" name="bottom_dd"/>
    </contour>
    <contour>
      <point x="1337.0" y="1633.0" type="move" name="top0315"/>
    </contour>
  </outline>
</glyph>
<glyph name="D" format="1">
  <advance width="1639"/>
  <unicode hex="0044"/>
  <outline>
    <contour>
      <point x="791" y="0" type="line"/>
      <point x="1247" y="0"/>
      <point x="1509" y="263"/>
      <point x="1509" y="688" type="curve"/>
      <point x="1509" y="767" type="line"/>
      <point x="1509" y="1192"/>
      <point x="1243" y="1456"/>
      <point x="813" y="1456" type="curve"/>
      <point x="338" y="1456" type="line"/>
      <point x="338" y="1289" type="line"/>
      <point x="813" y="1289" type="line"/>
      <point x="1129" y="1289"/>
      <point x="1303" y="1102"/>
      <point x="1303" y="769" type="curve"/>
      <point x="1303" y="688" type="line" smooth="yes"/>
      <point x="1303" y="371"/>
      <point x="1136" y="166"/>
      <point x="791" y="166" type="curve"/>
      <point x="338" y="166" type="line"/>
      <point x="338" y="0" type="line"/>
    </contour>
    <contour>
      <point x="428" y="1456" type="line"/>
      <point x="220" y="1456" type="line"/>
      <point x="220" y="0" type="line"/>
      <point x="428" y="0" type="line"/>
    </contour>
    <contour>
      <point x="665.0" y="1612.0" type="move" name="top"/>
    </contour>
    <contour>
      <point x="372.0" y="738.0" type="move" name="cross"/>
    </contour>
    <contour>
      <point x="669.0" y="10.0" type="move" name="bottom"/>
    </contour>
    <contour>
      <point x="1398.0" y="1600.0" type="move" name="top_dd"/>
    </contour>
    <contour>
      <point x="1398.0" y="-407.0" type="move" name="bottom_dd"/>
    </contour>
    <contour>
      <point x="1398.0" y="1612.0" type="move" name="top0315"/>
    </contour>
  </outline>
</glyph>
<glyph name="E" format="1">
  <advance width="1289"/>
  <unicode hex="0045"/>
  <outline>
    <contour>
      <point x="1249" y="166" type="line"/>
      <point x="389" y="166" type="line"/>
      <point x="389" y="0" type="line"/>
      <point x="1249" y="0" type="line"/>
    </contour>
    <contour>
      <point x="428" y="1456" type="line"/>
      <point x="220" y="1456" type="line"/>
      <point x="220" y="0" type="line"/>
      <point x="428" y="0" type="line"/>
    </contour>
    <contour>
      <point x="1147" y="835" type="line"/>
      <point x="389" y="835" type="line"/>
      <point x="389" y="669" type="line"/>
      <point x="1147" y="669" type="line"/>
    </contour>
    <contour>
      <point x="1238" y="1456" type="line"/>
      <point x="389" y="1456" type="line"/>
      <point x="389" y="1289" type="line"/>
      <point x="1238" y="1289" type="line"/>
    </contour>
    <contour>
      <point x="673.0" y="1612.0" type="move" name="top"/>
    </contour>
    <contour>
      <point x="673.0" y="10.0" type="move" name="bottom"/>
    </contour>
    <contour>
      <point x="15.0" y="1455.0" type="move" name="tonos"/>
    </contour>
    <contour>
      <point x="1075.0" y="0.0" type="move" name="ogonek"/>
    </contour>
    <contour>
      <point x="1218.0" y="1600.0" type="move" name="top_dd"/>
    </contour>
    <contour>
      <point x="1218.0" y="-407.0" type="move" name="bottom_dd"/>
    </contour>
    <contour>
      <point x="1218.0" y="1612.0" type="move" name="top0315"/>
    </contour>
  </outline>
</glyph>
<glyph name="F" format="1">
  <advance width="1232"/>
  <unicode hex="0046"/>
  <outline>
    <contour>
      <point x="428" y="1456" type="line"/>
      <point x="220" y="1456" type="line"/>
      <point x="220" y="0" type="line"/>
      <point x="428" y="0" type="line"/>
    </contour>
    <contour>
      <point x="1113" y="803" type="line"/>
      <point x="386" y="803" type="line"/>
      <point x="386" y="637" type="line"/>
      <point x="1113" y="637" type="line"/>
    </contour>
    <contour>
      <point x="1212" y="1456" type="line"/>
      <point x="386" y="1456" type="line"/>
      <point x="386" y="1289" type="line"/>
      <point x="1212" y="1289" type="line"/>
    </contour>
    <contour>
      <point x="334.0" y="337.0" type="move" name="cross"/>
    </contour>
    <contour>
      <point x="620.0" y="1612.0" type="move" name="top"/>
    </contour>
    <contour>
      <point x="532.0" y="10.0" type="move" name="bottom"/>
    </contour>
    <contour>
      <point x="1129.0" y="1600.0" type="move" name="top_dd"/>
    </contour>
    <contour>
      <point x="1129.0" y="-407.0" type="move" name="bottom_dd"/>
    </contour>
    <contour>
      <point x="1129.0" y="1612.0" type="move" name="top0315"/>
    </contour>
  </outline>
</glyph>
<glyph name="G" format="1">
  <advance width="1619"/>
  <unicode hex="0047"/>
  <outline>
    <contour>
      <point x="1499" y="731" type="line"/>
      <point x="838" y="731" type="line"/>
      <point x="838" y="566" type="line"/>
      <point x="1310" y="566" type="line"/>
      <point x="1310" y="248" type="line"/>
      <point x="1264" y="206"/>
      <point x="1152" y="141"/>
      <point x="877" y="141" type="curve" smooth="yes"/>
      <point x="550" y="141"/>
      <point x="329" y="341"/>
      <point x="329" y="712" type="curve" smooth="yes"/>
      <point x="329" y="738" type="line" smooth="yes"/>
      <point x="329" y="1073"/>
      <point x="502" y="1315"/>
      <point x="831" y="1315" type="curve" smooth="yes"/>
      <point x="1126" y="1315"/>
      <point x="1276" y="1181"/>
      <point x="1309" y="1027" type="curve"/>
      <point x="1499" y="1027" type="line"/>
      <point x="1456" y="1287"/>
      <point x="1235" y="1482"/>
      <point x="837" y="1482" type="curve" smooth="yes"/>
      <point x="394" y="1482"/>
      <point x="120" y="1197"/>
      <point x="120" y="750" type="curve" smooth="yes"/>
      <point x="120" y="706" type="line" smooth="yes"/>
      <point x="120" y="257"/>
      <point x="432" y="-25"/>
      <point x="861" y="-25" type="curve" smooth="yes"/>
      <point x="1235" y="-25"/>
      <point x="1432" y="106"/>
      <point x="1499" y="195" type="curve"/>
    </contour>
    <contour>
      <point x="671.0" y="1633.0" type="move" name="top"/>
    </contour>
    <contour>
      <point x="733.0" y="-10.0" type="move" name="bottom"/>
    </contour>
    <contour>
      <point x="1397.0" y="1600.0" type="move" name="top_dd"/>
    </contour>
    <contour>
      <point x="1397.0" y="-407.0" type="move" name="bottom_dd"/>
    </contour>
    <contour>
      <point x="1397.0" y="1633.0" type="move" name="top0315"/>
    </contour>
  </outline>
</glyph>
<glyph name="H" format="1">
  <advance width="1768"/>
  <unicode hex="0048"/>
  <outline>
    <contour>
      <point x="1364" y="835" type="line"/>
      <point x="398" y="835" type="line"/>
      <point x="398" y="669" type="line"/>
      <point x="1364" y="669" type="line"/>
    </contour>
    <contour>
      <point x="428" y="1456" type="line"/>
      <point x="220" y="1456" type="line"/>
      <point x="220" y="0" type="line"/>
      <point x="428" y="0" type="line"/>
    </contour>
    <contour>
      <point x="1548" y="1456" type="line"/>
      <point x="1340" y="1456" type="line"/>
      <point x="1340" y="0" type="line"/>
      <point x="1548" y="0" type="line"/>
    </contour>
    <contour>
      <point x="766.0" y="1612.0" type="move" name="top"/>
    </contour>
    <contour>
      <point x="1347.0" y="0.0" type="move" name="right"/>
    </contour>
    <contour>
      <point x="29.0" y="1457.0" type="move" name="tonos"/>
    </contour>
    <contour>
      <point x="768.0" y="10.0" type="move" name="bottom"/>
    </contour>
    <contour>
      <point x="1517.0" y="1600.0" type="move" name="top_dd"/>
    </contour>
    <contour>
      <point x="1517.0" y="-407.0" type="move" name="bottom_dd"/>
    </contour>
    <contour>
      <point x="1517.0" y="1612.0" type="move" name="top0315"/>
    </contour>
  </outline>
</glyph>
<glyph name="I" format="1">
  <advance width="648"/>
  <unicode hex="0049"/>
  <outline>
    <contour>
      <point x="428" y="1456" type="line"/>
      <point x="220" y="1456" type="line"/>
      <point x="220" y="0" type="line"/>
      <point x="428" y="0" type="line"/>
    </contour>
    <contour>
      <point x="323.0" y="1612.0" type="move" name="top"/>
    </contour>
    <contour>
      <point x="323.0" y="10.0" type="move" name="bottom"/>
    </contour>
    <contour>
      <point x="22.0" y="1457.0" type="move" name="tonos"/>
    </contour>
    <contour>
      <point x="423.0" y="0.0" type="move" name="right"/>
    </contour>
    <contour>
      <point x="390.0" y="0.0" type="move" name="ogonek"/>
    </contour>
    <contour>
      <point x="603.0" y="1600.0" type="move" name="top_dd"/>
    </contour>
    <contour>
      <point x="603.0" y="-407.0" type="move" name="bottom_dd"/>
    </contour>
    <contour>
      <point x="603.0" y="1612.0" type="move" name="top0315"/>
    </contour>
  </outline>
</glyph>
<glyph name="J" format="1">
  <advance width="1258"/>
  <unicode hex="004A"/>
  <outline>
    <contour>
      <point x="870" y="424" type="line"/>
      <point x="870" y="242"/>
      <point x="741" y="146"/>
      <point x="564" y="146" type="curve" smooth="yes"/>
      <point x="399" y="146"/>
      <point x="258" y="214"/>
      <point x="258" y="459" type="curve"/>
      <point x="50" y="459" type="line"/>
      <point x="50" y="106"/>
      <point x="277" y="-20"/>
      <point x="564" y="-20" type="curve" smooth="yes"/>
      <point x="865" y="-20"/>
      <point x="1078" y="136"/>
      <point x="1078" y="424" type="curve"/>
      <point x="1078" y="1456" type="line"/>
      <point x="870" y="1456" type="line"/>
    </contour>
    <contour>
      <point x="847.0" y="1601.0" type="move" name="top"/>
    </contour>
    <contour>
      <point x="513.0" y="-10.0" type="move" name="bottom"/>
    </contour>
    <contour>
      <point x="1132.0" y="1600.0" type="move" name="top_dd"/>
    </contour>
    <contour>
      <point x="1132.0" y="-407.0" type="move" name="bottom_dd"/>
    </contour>
    <contour>
      <point x="1132.0" y="1601.0" type="move" name="top0315"/>
    </contour>
  </outline>
</glyph>
<glyph name="K" format="1">
  <advance width="1436"/>
  <unicode hex="004B"/>
  <outline>
    <contour>
      <point x="428" y="1456" type="line"/>
      <point x="220" y="1456" type="line"/>
      <point x="220" y="0" type="line"/>
      <point x="428" y="0" type="line"/>
    </contour>
    <contour>
      <point x="1462" y="1456" type="line"/>
      <point x="1203" y="1456" type="line"/>
      <point x="612" y="864" type="line"/>
      <point x="326" y="578" type="line"/>
      <point x="362" y="381" type="line"/>
      <point x="726" y="737" type="line"/>
    </contour>
    <contour>
      <point x="1248" y="0" type="line"/>
      <point x="1506" y="0" type="line"/>
      <point x="759" y="866" type="line"/>
      <point x="625" y="723" type="line"/>
    </contour>
    <contour>
      <point x="684.0" y="88.0" type="move" name="bottom"/>
    </contour>
    <contour>
      <point x="1248.0" y="0.0" type="move" name="right"/>
    </contour>
    <contour>
      <point x="296.0" y="1229.0" type="move" name="cross"/>
    </contour>
    <contour>
      <point x="625.0" y="1601.0" type="move" name="top"/>
    </contour>
    <contour>
      <point x="1303.0" y="1600.0" type="move" name="top_dd"/>
    </contour>
    <contour>
      <point x="1303.0" y="-407.0" type="move" name="bottom_dd"/>
    </contour>
    <contour>
      <point x="1303.0" y="1601.0" type="move" name="top0315"/>
    </contour>
  </outline>
</glyph>
<glyph name="L" format="1">
  <advance width="1370"/>
  <unicode hex="004C"/>
  <outline>
    <contour>
      <point x="1340" y="171" type="line"/>
      <point x="389" y="171" type="line"/>
      <point x="389" y="0" type="line"/>
      <point x="1340" y="0" type="line"/>
    </contour>
    <contour>
      <point x="428" y="1456" type="line"/>
      <point x="220" y="1456" type="line"/>
      <point x="220" y="0" type="line"/>
      <point x="428" y="0" type="line"/>
    </contour>
    <contour>
      <point x="287.0" y="1600.0" type="move" name="top"/>
    </contour>
    <contour>
      <point x="639.0" y="10.0" type="move" name="bottom"/>
    </contour>
    <contour>
      <point x="628.0" y="1455.0" type="move" name="caron"/>
    </contour>
    <contour>
      <point x="620.0" y="794.0" type="move" name="dot"/>
    </contour>
    <contour>
      <point x="1128.0" y="1600.0" type="move" name="top_dd"/>
    </contour>
    <contour>
      <point x="1128.0" y="-407.0" type="move" name="bottom_dd"/>
    </contour>
    <contour>
      <point x="1128.0" y="1600.0" type="move" name="top0315"/>
    </contour>
  </outline>
</glyph>
<glyph name="M" format="1">
  <advance width="2179"/>
  <unicode hex="004D"/>
  <outline>
    <contour>
      <point x="345" y="1456" type="line"/>
      <point x="990" y="0" type="line"/>
      <point x="1148" y="0" type="line"/>
      <point x="1854" y="1456" type="line"/>
      <point x="1658" y="1456" type="line"/>
      <point x="1076" y="245" type="line"/>
      <point x="553" y="1456" type="line"/>
    </contour>
    <contour>
      <point x="220" y="1456" type="line"/>
      <point x="220" y="0" type="line"/>
      <point x="417" y="0" type="line"/>
      <point x="417" y="1185" type="line"/>
      <point x="387" y="1456" type="line"/>
    </contour>
    <contour>
      <point x="1782" y="1456" type="line"/>
      <point x="1752" y="1171" type="line"/>
      <point x="1752" y="0" type="line"/>
      <point x="1959" y="0" type="line"/>
      <point x="1959" y="1456" type="line"/>
    </contour>
    <contour>
      <point x="944.0" y="1600.0" type="move" name="top"/>
    </contour>
    <contour>
      <point x="1664.0" y="0.0" type="move" name="right"/>
    </contour>
    <contour>
      <point x="949.0" y="10.0" type="move" name="bottom"/>
    </contour>
    <contour>
      <point x="1846.0" y="1600.0" type="move" name="top_dd"/>
    </contour>
    <contour>
      <point x="1846.0" y="-407.0" type="move" name="bottom_dd"/>
    </contour>
    <contour>
      <point x="1846.0" y="1600.0" type="move" name="top0315"/>
    </contour>
  </outline>
</glyph>
<glyph name="N" format="1">
  <advance width="1687"/>
  <unicode hex="004E"/>
  <outline>
    <contour>
      <point x="1467" y="1456" type="line"/>
      <point x="1271" y="1456" type="line"/>
      <point x="1271" y="293" type="line"/>
      <point x="428" y="1456" type="line"/>
      <point x="220" y="1456" type="line"/>
      <point x="220" y="0" type="line"/>
      <point x="416" y="0" type="line"/>
      <point x="416" y="1162" type="line"/>
      <point x="1258" y="0" type="line"/>
      <point x="1467" y="0" type="line"/>
    </contour>
    <contour>
      <point x="746.0" y="1600.0" type="move" name="top"/>
    </contour>
    <contour>
      <point x="739.0" y="10.0" type="move" name="bottom"/>
    </contour>
    <contour>
      <point x="1312.0" y="0.0" type="move" name="right"/>
    </contour>
    <contour>
      <point x="1482.0" y="1600.0" type="move" name="top_dd"/>
    </contour>
    <contour>
      <point x="1482.0" y="-407.0" type="move" name="bottom_dd"/>
    </contour>
    <contour>
      <point x="1482.0" y="1600.0" type="move" name="top0315"/>
    </contour>
  </outline>
</glyph>
<glyph name="O" format="1">
  <advance width="1713"/>
  <unicode hex="004F"/>
  <outline>
    <contour>
      <point x="1593" y="749" type="line"/>
      <point x="1593" y="1210"/>
      <point x="1223" y="1482"/>
      <point x="858" y="1482" type="curve"/>
      <point x="504" y="1482"/>
      <point x="120" y="1210"/>
      <point x="120" y="749" type="curve"/>
      <point x="120" y="710" type="line"/>
      <point x="120" y="249"/>
      <point x="505" y="-26"/>
      <point x="859" y="-26" type="curve"/>
      <point x="1224" y="-26"/>
      <point x="1593" y="249"/>
      <point x="1593" y="710" type="curve"/>
    </contour>
    <contour>
      <point x="1386" y="709" type="line" smooth="yes"/>
      <point x="1386" y="338"/>
      <point x="1137" y="149"/>
      <point x="859" y="149" type="curve"/>
      <point x="596" y="149"/>
      <point x="326" y="338"/>
      <point x="326" y="713" type="curve" smooth="yes"/>
      <point x="326" y="743" type="line" smooth="yes"/>
      <point x="326" y="1117"/>
      <point x="594" y="1306"/>
      <point x="857" y="1306" type="curve"/>
      <point x="1133" y="1306"/>
      <point x="1386" y="1117"/>
      <point x="1386" y="740" type="curve" smooth="yes"/>
    </contour>
    <contour>
      <point x="713.0" y="1600.0" type="move" name="top"/>
    </contour>
    <contour>
      <point x="713.0" y="0.0" type="move" name="bottom"/>
    </contour>
    <contour>
      <point x="153.0" y="1454.0" type="move" name="tonos"/>
    </contour>
    <contour>
      <point x="1417.0" y="1600.0" type="move" name="top_dd"/>
    </contour>
    <contour>
      <point x="1417.0" y="-407.0" type="move" name="bottom_dd"/>
    </contour>
    <contour>
      <point x="1417.0" y="1600.0" type="move" name="top0315"/>
    </contour>
  </outline>
</glyph>
<glyph name="P" format="1">
  <advance width="1353"/>
  <unicode hex="0050"/>
  <outline>
    <contour>
      <point x="766" y="567" type="line"/>
      <point x="1098" y="567"/>
      <point x="1281" y="727"/>
      <point x="1281" y="1010" type="curve"/>
      <point x="1281" y="1269"/>
      <point x="1098" y="1456"/>
      <point x="766" y="1456" type="curve"/>
      <point x="220" y="1456" type="line"/>
      <point x="220" y="0" type="line"/>
      <point x="428" y="0" type="line"/>
      <point x="428" y="1289" type="line"/>
      <point x="766" y="1289" type="line"/>
      <point x="984" y="1289"/>
      <point x="1073" y="1153"/>
      <point x="1073" y="1008" type="curve"/>
      <point x="1073" y="846"/>
      <point x="984" y="733"/>
      <point x="766" y="733" type="curve"/>
      <point x="383" y="733" type="line"/>
      <point x="383" y="567" type="line"/>
    </contour>
    <contour>
      <point x="79.0" y="1454.0" type="move" name="tonos"/>
    </contour>
    <contour>
      <point x="665.0" y="1612.0" type="move" name="top"/>
    </contour>
    <contour>
      <point x="584.0" y="10.0" type="move" name="bottom"/>
    </contour>
    <contour>
      <point x="1353.0" y="1600.0" type="move" name="top_dd"/>
    </contour>
    <contour>
      <point x="1353.0" y="-407.0" type="move" name="bottom_dd"/>
    </contour>
    <contour>
      <point x="1353.0" y="1612.0" type="move" name="top0315"/>
    </contour>
  </outline>
</glyph>
<glyph name="R" format="1">
  <advance width="1423"/>
  <unicode hex="0052"/>
  <outline>
    <contour>
      <point x="220" y="1456" type="line"/>
      <point x="220" y="0" type="line"/>
      <point x="428" y="0" type="line"/>
      <point x="428" y="1289" type="line"/>
      <point x="824" y="1289" type="line" smooth="yes"/>
      <point x="1042" y="1289"/>
      <point x="1130" y="1180"/>
      <point x="1130" y="1017" type="curve" smooth="yes"/>
      <point x="1130" y="869"/>
      <point x="1028" y="753"/>
      <point x="825" y="753" type="curve" smooth="yes"/>
      <point x="381" y="753" type="line"/>
      <point x="383" y="587" type="line"/>
      <point x="944" y="587" type="line"/>
      <point x="1001" y="609" type="line"/>
      <point x="1213" y="666"/>
      <point x="1338" y="818"/>
      <point x="1338" y="1017" type="curve" smooth="yes"/>
      <point x="1338" y="1303"/>
      <point x="1157" y="1456"/>
      <point x="824" y="1456" type="curve" smooth="yes"/>
    </contour>
    <contour>
      <point x="1180" y="0" type="line"/>
      <point x="1403" y="0" type="line"/>
      <point x="1403" y="12" type="line"/>
      <point x="1048" y="662" type="line"/>
      <point x="831" y="662" type="line"/>
    </contour>
    <contour>
      <point x="610.0" y="1600.0" type="move" name="top"/>
    </contour>
    <contour>
      <point x="611.0" y="10.0" type="move" name="bottom"/>
    </contour>
    <contour>
      <point x="1253.0" y="1600.0" type="move" name="top_dd"/>
    </contour>
    <contour>
      <point x="1253.0" y="-407.0" type="move" name="bottom_dd"/>
    </contour>
    <contour>
      <point x="1253.0" y="1600.0" type="move" name="top0315"/>
    </contour>
  </outline>
</glyph>
<glyph name="S" format="1">
  <advance width="1354"/>
  <unicode hex="0053"/>
  <outline>
    <contour>
      <point x="1087" y="380" type="curve" smooth="yes"/>
      <point x="1087" y="245"/>
      <point x="971" y="147"/>
      <point x="709" y="147" type="curve" smooth="yes"/>
      <point x="456" y="147"/>
      <point x="288" y="228"/>
      <point x="288" y="423" type="curve"/>
      <point x="80" y="423" type="line"/>
      <point x="80" y="105"/>
      <point x="342" y="-25"/>
      <point x="708" y="-25" type="curve" smooth="yes"/>
      <point x="1089" y="-25"/>
      <point x="1294" y="160"/>
      <point x="1294" y="409" type="curve" smooth="yes"/>
      <point x="1294" y="636"/>
      <point x="1117" y="769"/>
      <point x="737" y="825" type="curve" smooth="yes"/>
      <point x="400" y="875"/>
      <point x="325" y="959"/>
      <point x="325" y="1076" type="curve" smooth="yes"/>
      <point x="325" y="1202"/>
      <point x="432" y="1309"/>
      <point x="670" y="1309" type="curve" smooth="yes"/>
      <point x="926" y="1309"/>
      <point x="1025" y="1194"/>
      <point x="1042" y="1035" type="curve"/>
      <point x="1253" y="1035" type="line"/>
      <point x="1239" y="1268"/>
      <point x="1056" y="1476"/>
      <point x="678" y="1476" type="curve" smooth="yes"/>
      <point x="337" y="1476"/>
      <point x="116" y="1293"/>
      <point x="116" y="1084" type="curve" smooth="yes"/>
      <point x="116" y="810"/>
      <point x="246" y="706"/>
      <point x="693" y="642" type="curve" smooth="yes"/>
      <point x="1011" y="597"/>
      <point x="1087" y="490"/>
    </contour>
    <contour>
      <point x="622.0" y="1600.0" type="move" name="top"/>
    </contour>
    <contour>
      <point x="629.0" y="0.0" type="move" name="bottom"/>
    </contour>
    <contour>
      <point x="1217.0" y="1600.0" type="move" name="top_dd"/>
    </contour>
    <contour>
      <point x="1217.0" y="-407.0" type="move" name="bottom_dd"/>
    </contour>
    <contour>
      <point x="1217.0" y="1600.0" type="move" name="top0315"/>
    </contour>
  </outline>
</glyph>
<glyph name="T" format="1">
  <advance width="1407"/>
  <unicode hex="0054"/>
  <outline>
    <contour>
      <point x="814" y="1376" type="line"/>
      <point x="608" y="1376" type="line"/>
      <point x="608" y="0" type="line"/>
      <point x="814" y="0" type="line"/>
    </contour>
    <contour>
      <point x="1415" y="1456" type="line"/>
      <point x="8" y="1456" type="line"/>
      <point x="8" y="1289" type="line"/>
      <point x="1415" y="1289" type="line"/>
    </contour>
    <contour>
      <point x="631.0" y="1600.0" type="move" name="top"/>
    </contour>
    <contour>
      <point x="633.0" y="0.0" type="move" name="bottom"/>
    </contour>
    <contour>
      <point x="729.0" y="0.0" type="move" name="right"/>
    </contour>
    <contour>
      <point x="638.0" y="897.0" type="move" name="cross"/>
    </contour>
    <contour>
      <point x="1241.0" y="1600.0" type="move" name="top_dd"/>
    </contour>
    <contour>
      <point x="1241.0" y="-407.0" type="move" name="bottom_dd"/>
    </contour>
    <contour>
      <point x="1241.0" y="1600.0" type="move" name="top0315"/>
    </contour>
  </outline>
</glyph>
<glyph name="U" format="1">
  <advance width="1661"/>
  <unicode hex="0055"/>
  <outline>
    <contour>
      <point x="1273" y="1456" type="line"/>
      <point x="1273" y="565" type="line"/>
      <point x="1273" y="248"/>
      <point x="1072" y="150"/>
      <point x="831" y="150" type="curve" smooth="yes"/>
      <point x="592" y="150"/>
      <point x="386" y="248"/>
      <point x="386" y="565" type="curve"/>
      <point x="386" y="1456" type="line"/>
      <point x="180" y="1456" type="line"/>
      <point x="180" y="565" type="line"/>
      <point x="180" y="143"/>
      <point x="464" y="-24"/>
      <point x="831" y="-24" type="curve" smooth="yes"/>
      <point x="1178" y="-24"/>
      <point x="1481" y="143"/>
      <point x="1481" y="565" type="curve"/>
      <point x="1481" y="1456" type="line"/>
    </contour>
    <contour>
      <point x="709.0" y="1600.0" type="move" name="top"/>
    </contour>
    <contour>
      <point x="709.0" y="0.0" type="move" name="bottom"/>
    </contour>
    <contour>
      <point x="883.0" y="0.0" type="move" name="right"/>
    </contour>
    <contour>
      <point x="986.0" y="45.0" type="move" name="ogonek"/>
    </contour>
    <contour>
      <point x="1369.0" y="1600.0" type="move" name="top_dd"/>
    </contour>
    <contour>
      <point x="1369.0" y="-407.0" type="move" name="bottom_dd"/>
    </contour>
    <contour>
      <point x="1369.0" y="1600.0" type="move" name="top0315"/>
    </contour>
  </outline>
</glyph>
<glyph name="V" format="1">
  <advance width="1483"/>
  <unicode hex="0056"/>
  <outline>
    <contour>
      <point x="723" y="198" type="line"/>
      <point x="672" y="0" type="line"/>
      <point x="832" y="0" type="line"/>
      <point x="1471" y="1456" type="line"/>
      <point x="1257" y="1456" type="line"/>
    </contour>
    <contour>
      <point x="228" y="1456" type="line"/>
      <point x="12" y="1456" type="line"/>
      <point x="650" y="0" type="line"/>
      <point x="810" y="0" type="line"/>
      <point x="756" y="198" type="line"/>
    </contour>
    <contour>
      <point x="644.0" y="1612.0" type="move" name="top"/>
    </contour>
    <contour>
      <point x="644.0" y="10.0" type="move" name="bottom"/>
    </contour>
    <contour>
      <point x="1297.0" y="1600.0" type="move" name="top_dd"/>
    </contour>
    <contour>
      <point x="1297.0" y="-407.0" type="move" name="bottom_dd"/>
    </contour>
    <contour>
      <point x="1297.0" y="1612.0" type="move" name="top0315"/>
    </contour>
  </outline>
</glyph>
<glyph name="W" format="1">
  <advance width="2078"/>
  <unicode hex="0057"/>
  <outline>
    <contour>
      <point x="585" y="320" type="line"/>
      <point x="511" y="0" type="line"/>
      <point x="660" y="0" type="line"/>
      <point x="1010" y="1068" type="line"/>
      <point x="1092" y="1456" type="line"/>
      <point x="942" y="1456" type="line"/>
    </contour>
    <contour>
      <point x="231" y="1456" type="line"/>
      <point x="24" y="1456" type="line"/>
      <point x="472" y="0" type="line"/>
      <point x="619" y="0" type="line"/>
      <point x="563" y="321" type="line"/>
    </contour>
    <contour>
      <point x="1519" y="302" type="line"/>
      <point x="1459" y="0" type="line"/>
      <point x="1606" y="0" type="line"/>
      <point x="2054" y="1456" type="line"/>
      <point x="1846" y="1456" type="line"/>
    </contour>
    <contour>
      <point x="1115" y="1456" type="line"/>
      <point x="968" y="1456" type="line"/>
      <point x="1050" y="1068" type="line"/>
      <point x="1418" y="0" type="line"/>
      <point x="1567" y="0" type="line"/>
      <point x="1494" y="300" type="line"/>
    </contour>
    <contour>
      <point x="887.0" y="1600.0" type="move" name="top"/>
    </contour>
    <contour>
      <point x="885.0" y="10.0" type="move" name="bottom"/>
    </contour>
    <contour>
      <point x="1776.0" y="1600.0" type="move" name="top_dd"/>
    </contour>
    <contour>
      <point x="1776.0" y="-407.0" type="move" name="bottom_dd"/>
    </contour>
    <contour>
      <point x="1776.0" y="1600.0" type="move" name="top0315"/>
    </contour>
  </outline>
</glyph>
<glyph name="X" format="1">
  <advance width="1509"/>
  <unicode hex="0058"/>
  <outline>
    <contour>
      <point x="283" y="1456" type="line"/>
      <point x="40" y="1456" type="line"/>
      <point x="633" y="733" type="line"/>
      <point x="30" y="0" type="line"/>
      <point x="275" y="0" type="line"/>
      <point x="755" y="585" type="line"/>
      <point x="1234" y="0" type="line"/>
      <point x="1479" y="0" type="line"/>
      <point x="876" y="733" type="line"/>
      <point x="1469" y="1456" type="line"/>
      <point x="1226" y="1456" type="line"/>
      <point x="755" y="882" type="line"/>
    </contour>
    <contour>
      <point x="616.0" y="10.0" type="move" name="bottom"/>
    </contour>
    <contour>
      <point x="1081.0" y="0.0" type="move" name="right"/>
    </contour>
    <contour>
      <point x="619.0" y="742.0" type="move" name="cross"/>
    </contour>
    <contour>
      <point x="624.0" y="1612.0" type="move" name="top"/>
    </contour>
    <contour>
      <point x="1263.0" y="1600.0" type="move" name="top_dd"/>
    </contour>
    <contour>
      <point x="1263.0" y="-407.0" type="move" name="bottom_dd"/>
    </contour>
    <contour>
      <point x="1263.0" y="1612.0" type="move" name="top0315"/>
    </contour>
  </outline>
</glyph>
<glyph name="Y" format="1">
  <advance width="1582"/>
  <unicode hex="0059"/>
  <outline>
    <contour>
      <point x="247" y="1456" type="line"/>
      <point x="10" y="1456" type="line"/>
      <point x="687" y="543" type="line"/>
      <point x="687" y="0" type="line"/>
      <point x="895" y="0" type="line"/>
      <point x="895" y="543" type="line"/>
      <point x="1572" y="1456" type="line"/>
      <point x="1336" y="1456" type="line"/>
      <point x="791" y="726" type="line"/>
    </contour>
    <contour>
      <point x="616.0" y="1600.0" type="move" name="top"/>
    </contour>
    <contour>
      <point x="612.0" y="0.0" type="move" name="bottom"/>
    </contour>
    <contour>
      <point x="611.0" y="594.0" type="move" name="cross"/>
    </contour>
    <contour>
      <point x="-66.0" y="1454.0" type="move" name="tonos"/>
    </contour>
    <contour>
      <point x="1228.0" y="1600.0" type="move" name="top_dd"/>
    </contour>
    <contour>
      <point x="1228.0" y="-407.0" type="move" name="bottom_dd"/>
    </contour>
    <contour>
      <point x="1228.0" y="1600.0" type="move" name="top0315"/>
    </contour>
  </outline>
</glyph>
<glyph name="Z" format="1">
  <advance width="1382"/>
  <unicode hex="005A"/>
  <outline>
    <contour>
      <point x="1322" y="166" type="line"/>
      <point x="139" y="166" type="line"/>
      <point x="139" y="0" type="line"/>
      <point x="1322" y="0" type="line"/>
    </contour>
    <contour>
      <point x="1290" y="1307" type="line"/>
      <point x="1290" y="1456" type="line"/>
      <point x="1181" y="1456" type="line"/>
      <point x="60" y="153" type="line"/>
      <point x="60" y="0" type="line"/>
      <point x="168" y="0" type="line"/>
    </contour>
    <contour>
      <point x="1202" y="1456" type="line"/>
      <point x="70" y="1456" type="line"/>
      <point x="70" y="1289" type="line"/>
      <point x="1202" y="1289" type="line"/>
    </contour>
    <contour>
      <point x="591.0" y="1600.0" type="move" name="top"/>
    </contour>
    <contour>
      <point x="584.0" y="10.0" type="move" name="bottom"/>
    </contour>
    <contour>
      <point x="1201.0" y="1600.0" type="move" name="top_dd"/>
    </contour>
    <contour>
      <point x="1201.0" y="-407.0" type="move" name="bottom_dd"/>
    </contour>
    <contour>
      <point x="1201.0" y="1600.0" type="move" name="top0315"/>
    </contour>
  </outline>
</glyph>
<glyph name="a" format="1">
  <advance width="1253"/>
  <unicode hex="0061"/>
  <outline>
    <contour>
      <point x="897" y="183" type="line"/>
      <point x="897" y="123"/>
      <point x="906" y="41"/>
      <point x="926" y="0" type="curve"/>
      <point x="1134" y="0" type="line"/>
      <point x="1134" y="17" type="line"/>
      <point x="1108" y="76"/>
      <point x="1093" y="166"/>
      <point x="1093" y="238" type="curve" smooth="yes"/>
      <point x="1093" y="738" type="line"/>
      <point x="1093" y="981"/>
      <point x="904" y="1102"/>
      <point x="634" y="1102" type="curve" smooth="yes"/>
      <point x="332" y="1102"/>
      <point x="143" y="935"/>
      <point x="143" y="782" type="curve"/>
      <point x="348" y="782" type="line"/>
      <point x="348" y="867"/>
      <point x="453" y="945"/>
      <point x="621" y="945" type="curve" smooth="yes"/>
      <point x="802" y="945"/>
      <point x="897" y="864"/>
      <point x="897" y="740" type="curve"/>
    </contour>
    <contour>
      <point x="928" y="686" type="line"/>
      <point x="675" y="686" type="line"/>
      <point x="333" y="686"/>
      <point x="112" y="560"/>
      <point x="112" y="315" type="curve" smooth="yes"/>
      <point x="112" y="128"/>
      <point x="282" y="-20"/>
      <point x="541" y="-20" type="curve" smooth="yes"/>
      <point x="809" y="-20"/>
      <point x="978" y="177"/>
      <point x="998" y="288" type="curve"/>
      <point x="909" y="365" type="line"/>
      <point x="891" y="254"/>
      <point x="753" y="154"/>
      <point x="561" y="154" type="curve" smooth="yes"/>
      <point x="395" y="154"/>
      <point x="316" y="234"/>
      <point x="316" y="335" type="curve" smooth="yes"/>
      <point x="316" y="467"/>
      <point x="455" y="530"/>
      <point x="709" y="530" type="curve"/>
      <point x="930" y="530" type="line"/>
    </contour>
    <contour>
      <point x="706.0" y="1290.0" type="move" name="top"/>
    </contour>
    <contour>
      <point x="625.0" y="0.0" type="move" name="bottom"/>
    </contour>
    <contour>
      <point x="1098.0" y="0.0" type="move" name="ogonek"/>
    </contour>
    <contour>
      <point x="824.0" y="1290.0" type="move" name="rhalfring"/>
    </contour>
    <contour>
      <point x="1242.0" y="1600.0" type="move" name="top_dd"/>
    </contour>
    <contour>
      <point x="1242.0" y="-407.0" type="move" name="bottom_dd"/>
    </contour>
    <contour>
      <point x="1003.0" y="654.0" type="move" name="rhotichook"/>
    </contour>
    <contour>
      <point x="1242.0" y="1290.0" type="move" name="top0315"/>
    </contour>
  </outline>
</glyph>
<glyph name="b" format="1">
  <advance width="1394"/>
  <unicode hex="0062"/>
  <outline>
    <contour>
      <point x="180" y="1536" type="line"/>
      <point x="180" y="0" type="line"/>
      <point x="363" y="0" type="line"/>
      <point x="380" y="210" type="line"/>
      <point x="380" y="1536" type="line"/>
    </contour>
    <contour>
      <point x="1296" y="550" type="line"/>
      <point x="1296" y="879"/>
      <point x="1117" y="1102"/>
      <point x="793" y="1102" type="curve" smooth="yes"/>
      <point x="465" y="1102"/>
      <point x="309" y="901"/>
      <point x="273" y="572" type="curve"/>
      <point x="273" y="510" type="line"/>
      <point x="309" y="181"/>
      <point x="465" y="-20"/>
      <point x="796" y="-20" type="curve" smooth="yes"/>
      <point x="1114" y="-20"/>
      <point x="1296" y="214"/>
      <point x="1296" y="529" type="curve" smooth="yes"/>
    </contour>
    <contour>
      <point x="1096" y="529" type="line"/>
      <point x="1096" y="320"/>
      <point x="993" y="146"/>
      <point x="736" y="146" type="curve" smooth="yes"/>
      <point x="500" y="146"/>
      <point x="390" y="287"/>
      <point x="349" y="426" type="curve"/>
      <point x="349" y="655" type="line"/>
      <point x="388" y="803"/>
      <point x="500" y="937"/>
      <point x="733" y="937" type="curve" smooth="yes"/>
      <point x="1005" y="937"/>
      <point x="1096" y="759"/>
      <point x="1096" y="550" type="curve" smooth="yes"/>
    </contour>
    <contour>
      <point x="640.0" y="1611.0" type="move" name="top"/>
    </contour>
    <contour>
      <point x="600.0" y="-10.0" type="move" name="bottom"/>
    </contour>
    <contour>
      <point x="1153.0" y="1600.0" type="move" name="top_dd"/>
    </contour>
    <contour>
      <point x="1153.0" y="-407.0" type="move" name="bottom_dd"/>
    </contour>
    <contour>
      <point x="1153.0" y="1611.0" type="move" name="top0315"/>
    </contour>
  </outline>
</glyph>
<glyph name="c" format="1">
  <advance width="1213"/>
  <unicode hex="0063"/>
  <outline>
    <contour>
      <point x="680" y="140" type="curve" smooth="yes"/>
      <point x="430" y="140"/>
      <point x="304" y="295"/>
      <point x="304" y="520" type="curve" smooth="yes"/>
      <point x="304" y="562" type="line" smooth="yes"/>
      <point x="304" y="781"/>
      <point x="430" y="942"/>
      <point x="669" y="942" type="curve" smooth="yes"/>
      <point x="868" y="942"/>
      <point x="967" y="827"/>
      <point x="980" y="709" type="curve"/>
      <point x="1177" y="709" type="line"/>
      <point x="1165" y="929"/>
      <point x="971" y="1102"/>
      <point x="669" y="1102" type="curve" smooth="yes"/>
      <point x="296" y="1102"/>
      <point x="100" y="850"/>
      <point x="100" y="562" type="curve" smooth="yes"/>
      <point x="100" y="520" type="line" smooth="yes"/>
      <point x="100" y="232"/>
      <point x="294" y="-20"/>
      <point x="669" y="-20" type="curve" smooth="yes"/>
      <point x="976" y="-20"/>
      <point x="1165" y="164"/>
      <point x="1177" y="343" type="curve"/>
      <point x="980" y="343" type="line"/>
      <point x="968" y="250"/>
      <point x="868" y="140"/>
    </contour>
    <contour>
      <point x="531.0" y="1290.0" type="move" name="top"/>
    </contour>
    <contour>
      <point x="531.0" y="-10.0" type="move" name="bottom"/>
    </contour>
    <contour>
      <point x="531.0" y="1290.0" type="move" name="marktop"/>
    </contour>
    <contour>
      <point x="1076.0" y="1600.0" type="move" name="top_dd"/>
    </contour>
    <contour>
      <point x="1076.0" y="-407.0" type="move" name="bottom_dd"/>
    </contour>
    <contour>
      <point x="1076.0" y="1290.0" type="move" name="top0315"/>
    </contour>
  </outline>
</glyph>
<glyph name="d" format="1">
  <advance width="1402"/>
  <unicode hex="0064"/>
  <outline>
    <contour>
      <point x="1038" y="210" type="line"/>
      <point x="1055" y="0" type="line"/>
      <point x="1238" y="0" type="line"/>
      <point x="1238" y="1536" type="line"/>
      <point x="1038" y="1536" type="line"/>
    </contour>
    <contour>
      <point x="100" y="529" type="line"/>
      <point x="100" y="214"/>
      <point x="311" y="-20"/>
      <point x="620" y="-20" type="curve" smooth="yes"/>
      <point x="957" y="-20"/>
      <point x="1128" y="181"/>
      <point x="1163" y="510" type="curve"/>
      <point x="1163" y="572" type="line"/>
      <point x="1128" y="901"/>
      <point x="957" y="1102"/>
      <point x="622" y="1102" type="curve" smooth="yes"/>
      <point x="309" y="1102"/>
      <point x="100" y="879"/>
      <point x="100" y="550" type="curve" smooth="yes"/>
    </contour>
    <contour>
      <point x="300" y="550" type="line"/>
      <point x="300" y="759"/>
      <point x="409" y="937"/>
      <point x="670" y="937" type="curve" smooth="yes"/>
      <point x="903" y="937"/>
      <point x="1014" y="803"/>
      <point x="1054" y="655" type="curve"/>
      <point x="1054" y="426" type="line"/>
      <point x="1007" y="285"/>
      <point x="903" y="146"/>
      <point x="667" y="146" type="curve" smooth="yes"/>
      <point x="409" y="146"/>
      <point x="300" y="320"/>
      <point x="300" y="529" type="curve" smooth="yes"/>
    </contour>
    <contour>
      <point x="1124.0" y="1536.0" type="move" name="caron"/>
    </contour>
    <contour>
      <point x="889.0" y="1306.0" type="move" name="cross"/>
    </contour>
    <contour>
      <point x="627.0" y="0.0" type="move" name="bottom"/>
    </contour>
    <contour>
      <point x="558.0" y="1611.0" type="move" name="top"/>
    </contour>
    <contour>
      <point x="1167.0" y="1600.0" type="move" name="top_dd"/>
    </contour>
    <contour>
      <point x="1167.0" y="-407.0" type="move" name="bottom_dd"/>
    </contour>
    <contour>
      <point x="1167.0" y="1611.0" type="move" name="top0315"/>
    </contour>
  </outline>
</glyph>
<glyph name="e" format="1">
  <advance width="1275"/>
  <unicode hex="0065"/>
  <outline>
    <contour>
      <point x="689" y="-20" type="curve"/>
      <point x="948" y="-20"/>
      <point x="1094" y="85"/>
      <point x="1177" y="192" type="curve"/>
      <point x="1070" y="301" type="line"/>
      <point x="984" y="215"/>
      <point x="882" y="140"/>
      <point x="709" y="140" type="curve" smooth="yes"/>
      <point x="448" y="140"/>
      <point x="287" y="302"/>
      <point x="287" y="526" type="curve" smooth="yes"/>
      <point x="287" y="544" type="line" smooth="yes"/>
      <point x="287" y="803"/>
      <point x="449" y="939"/>
      <point x="663" y="939" type="curve"/>
      <point x="908" y="939"/>
      <point x="978" y="792"/>
      <point x="992" y="655" type="curve"/>
      <point x="992" y="641" type="line"/>
      <point x="218" y="641" type="line"/>
      <point x="218" y="481" type="line"/>
      <point x="1191" y="481" type="line"/>
      <point x="1191" y="566" type="line" smooth="yes"/>
      <point x="1191" y="871"/>
      <point x="1023" y="1104"/>
      <point x="678" y="1104" type="curve" smooth="yes"/>
      <point x="361" y="1104"/>
      <point x="100" y="900"/>
      <point x="100" y="544" type="curve" smooth="yes"/>
      <point x="100" y="519" type="line" smooth="yes"/>
      <point x="100" y="198"/>
      <point x="328" y="-20"/>
    </contour>
    <contour>
      <point x="565.0" y="1290.0" type="move" name="top"/>
    </contour>
    <contour>
      <point x="568.0" y="0.0" type="move" name="bottom"/>
    </contour>
    <contour>
      <point x="810.0" y="23.0" type="move" name="ogonek"/>
    </contour>
    <contour>
      <point x="1092.0" y="1600.0" type="move" name="top_dd"/>
    </contour>
    <contour>
      <point x="1092.0" y="-407.0" type="move" name="bottom_dd"/>
    </contour>
    <contour>
      <point x="910.0" y="654.0" type="move" name="rhotichook"/>
    </contour>
    <contour>
      <point x="1092.0" y="1290.0" type="move" name="top0315"/>
    </contour>
  </outline>
</glyph>
<glyph name="f" format="1">
  <advance width="776"/>
  <unicode hex="0066"/>
  <outline>
    <contour>
      <point x="469" y="0" type="line"/>
      <point x="469" y="1105" type="line"/>
      <point x="469" y="1303"/>
      <point x="563" y="1390"/>
      <point x="727" y="1390" type="curve" smooth="yes"/>
      <point x="776" y="1390"/>
      <point x="831" y="1382"/>
      <point x="871" y="1372" type="curve"/>
      <point x="873" y="1539" type="line"/>
      <point x="821" y="1550"/>
      <point x="767" y="1557"/>
      <point x="714" y="1557" type="curve" smooth="yes"/>
      <point x="437" y="1556"/>
      <point x="269" y="1409"/>
      <point x="269" y="1098" type="curve"/>
      <point x="269" y="0" type="line"/>
    </contour>
    <contour>
      <point x="773" y="1082" type="line"/>
      <point x="50" y="1082" type="line"/>
      <point x="50" y="927" type="line"/>
      <point x="773" y="927" type="line"/>
    </contour>
    <contour>
      <point x="500.0" y="1760.0" type="move" name="top"/>
    </contour>
    <contour>
      <point x="330.0" y="10.0" type="move" name="bottom"/>
    </contour>
    <contour>
      <point x="719.0" y="1600.0" type="move" name="top_dd"/>
    </contour>
    <contour>
      <point x="719.0" y="-407.0" type="move" name="bottom_dd"/>
    </contour>
    <contour>
      <point x="719.0" y="1760.0" type="move" name="top0315"/>
    </contour>
  </outline>
</glyph>
<glyph name="g" format="1">
  <advance width="1394"/>
  <unicode hex="0067"/>
  <outline>
    <contour>
      <point x="1033" y="1082" type="line"/>
      <point x="1014" y="844" type="line"/>
      <point x="1014" y="86" type="line" smooth="yes"/>
      <point x="1014" y="-146"/>
      <point x="879" y="-267"/>
      <point x="662" y="-267" type="curve" smooth="yes"/>
      <point x="541" y="-267"/>
      <point x="408" y="-228"/>
      <point x="291" y="-104" type="curve"/>
      <point x="165" y="-244" type="line"/>
      <point x="286" y="-383"/>
      <point x="530" y="-426"/>
      <point x="660" y="-426" type="curve" smooth="yes"/>
      <point x="992" y="-426"/>
      <point x="1214" y="-235"/>
      <point x="1214" y="105" type="curve" smooth="yes"/>
      <point x="1214" y="1082" type="line"/>
    </contour>
    <contour>
      <point x="100" y="529" type="line"/>
      <point x="100" y="214"/>
      <point x="289" y="-20"/>
      <point x="583" y="-20" type="curve" smooth="yes"/>
      <point x="897" y="-20"/>
      <point x="1077" y="151"/>
      <point x="1111" y="480" type="curve"/>
      <point x="1111" y="602" type="line"/>
      <point x="1077" y="931"/>
      <point x="897" y="1102"/>
      <point x="585" y="1102" type="curve" smooth="yes"/>
      <point x="286" y="1102"/>
      <point x="100" y="879"/>
      <point x="100" y="550" type="curve" smooth="yes"/>
    </contour>
    <contour>
      <point x="300" y="550" type="line"/>
      <point x="300" y="759"/>
      <point x="405" y="937"/>
      <point x="660" y="937" type="curve" smooth="yes"/>
      <point x="887" y="937"/>
      <point x="995" y="803"/>
      <point x="1035" y="655" type="curve"/>
      <point x="1035" y="426" type="line"/>
      <point x="982" y="277"/>
      <point x="887" y="146"/>
      <point x="657" y="146" type="curve" smooth="yes"/>
      <point x="405" y="146"/>
      <point x="300" y="320"/>
      <point x="300" y="529" type="curve" smooth="yes"/>
    </contour>
    <contour>
      <point x="561.0" y="1290.0" type="move" name="top"/>
    </contour>
    <contour>
      <point x="560.0" y="-447.0" type="move" name="bottom"/>
    </contour>
    <contour>
      <point x="1159.0" y="1600.0" type="move" name="top_dd"/>
    </contour>
    <contour>
      <point x="1159.0" y="-407.0" type="move" name="bottom_dd"/>
    </contour>
    <contour>
      <point x="1159.0" y="1290.0" type="move" name="top0315"/>
    </contour>
  </outline>
</glyph>
<glyph name="h" format="1">
  <advance width="1402"/>
  <unicode hex="0068"/>
  <outline>
    <contour>
      <point x="380" y="1536" type="line"/>
      <point x="180" y="1536" type="line"/>
      <point x="180" y="0" type="line"/>
      <point x="380" y="0" type="line"/>
    </contour>
    <contour>
      <point x="380" y="578" type="line"/>
      <point x="380" y="778"/>
      <point x="543" y="937"/>
      <point x="782" y="937" type="curve" smooth="yes"/>
      <point x="955" y="937"/>
      <point x="1039" y="842"/>
      <point x="1039" y="682" type="curve" smooth="yes"/>
      <point x="1039" y="0" type="line"/>
      <point x="1238" y="0" type="line"/>
      <point x="1238" y="695" type="line" smooth="yes"/>
      <point x="1238" y="978"/>
      <point x="1075" y="1102"/>
      <point x="823" y="1102" type="curve" smooth="yes"/>
      <point x="508" y="1102"/>
      <point x="298" y="880"/>
      <point x="298" y="576" type="curve"/>
    </contour>
    <contour>
      <point x="504.0" y="1611.0" type="move" name="top"/>
    </contour>
    <contour>
      <point x="281.0" y="1306.0" type="move" name="cross"/>
    </contour>
    <contour>
      <point x="590.0" y="10.0" type="move" name="bottom"/>
    </contour>
    <contour>
      <point x="996.0" y="0.0" type="move" name="right"/>
    </contour>
    <contour>
      <point x="1129.0" y="1600.0" type="move" name="top_dd"/>
    </contour>
    <contour>
      <point x="1129.0" y="-407.0" type="move" name="bottom_dd"/>
    </contour>
    <contour>
      <point x="1129.0" y="1611.0" type="move" name="top0315"/>
    </contour>
  </outline>
</glyph>
<glyph name="i" format="1">
  <advance width="591"/>
  <unicode hex="0069"/>
  <outline>
    <contour>
      <point x="393" y="1082" type="line"/>
      <point x="193" y="1082" type="line"/>
      <point x="193" y="0" type="line"/>
      <point x="393" y="0" type="line"/>
    </contour>
    <contour>
      <point x="170" y="1351" type="curve" smooth="yes"/>
      <point x="170" y="1281"/>
      <point x="213" y="1227"/>
      <point x="295" y="1227" type="curve"/>
      <point x="377" y="1227"/>
      <point x="421" y="1281"/>
      <point x="421" y="1351" type="curve"/>
      <point x="421" y="1420"/>
      <point x="377" y="1476"/>
      <point x="295" y="1476" type="curve"/>
      <point x="213" y="1476"/>
      <point x="170" y="1420"/>
    </contour>
    <contour>
      <point x="253.0" y="10.0" type="move" name="bottom"/>
    </contour>
    <contour>
      <point x="336.0" y="0.0" type="move" name="ogonek"/>
    </contour>
    <contour>
      <point x="255.0" y="1600.0" type="move" name="top"/>
    </contour>
    <contour>
      <point x="506.0" y="1600.0" type="move" name="top_dd"/>
    </contour>
    <contour>
      <point x="506.0" y="-407.0" type="move" name="bottom_dd"/>
    </contour>
    <contour>
      <point x="284.0" y="654.0" type="move" name="rhotichook"/>
    </contour>
    <contour>
      <point x="506.0" y="1600.0" type="move" name="top0315"/>
    </contour>
  </outline>
</glyph>
<glyph name="j" format="1">
  <advance width="600"/>
  <unicode hex="006A"/>
  <outline>
    <contour>
      <point x="202" y="1082" type="line"/>
      <point x="202" y="-129" type="line"/>
      <point x="202" y="-235"/>
      <point x="161" y="-271"/>
      <point x="87" y="-271" type="curve" smooth="yes"/>
      <point x="65" y="-271"/>
      <point x="29" y="-269"/>
      <point x="3" y="-263" type="curve"/>
      <point x="3" y="-420" type="line"/>
      <point x="34" y="-430"/>
      <point x="85" y="-437"/>
      <point x="119" y="-437" type="curve" smooth="yes"/>
      <point x="310" y="-437"/>
      <point x="402" y="-328"/>
      <point x="402" y="-129" type="curve"/>
      <point x="402" y="1082" type="line"/>
    </contour>
    <contour>
      <point x="179" y="1351" type="curve" smooth="yes"/>
      <point x="179" y="1281"/>
      <point x="222" y="1227"/>
      <point x="304" y="1227" type="curve"/>
      <point x="386" y="1227"/>
      <point x="430" y="1281"/>
      <point x="430" y="1351" type="curve"/>
      <point x="430" y="1420"/>
      <point x="386" y="1476"/>
      <point x="304" y="1476" type="curve"/>
      <point x="222" y="1476"/>
      <point x="179" y="1420"/>
    </contour>
    <contour>
      <point x="223.0" y="1600.0" type="move" name="top"/>
    </contour>
    <contour>
      <point x="190.0" y="-459.0" type="move" name="bottom"/>
    </contour>
    <contour>
      <point x="495.0" y="1600.0" type="move" name="top_dd"/>
    </contour>
    <contour>
      <point x="495.0" y="-407.0" type="move" name="bottom_dd"/>
    </contour>
    <contour>
      <point x="495.0" y="1600.0" type="move" name="top0315"/>
    </contour>
  </outline>
</glyph>
<glyph name="k" format="1">
  <advance width="1166"/>
  <unicode hex="006B"/>
  <outline>
    <contour>
      <point x="380" y="1536" type="line"/>
      <point x="180" y="1536" type="line"/>
      <point x="180" y="0" type="line"/>
      <point x="380" y="0" type="line"/>
    </contour>
    <contour>
      <point x="1167" y="1082" type="line"/>
      <point x="925" y="1082" type="line"/>
      <point x="586" y="745" type="line"/>
      <point x="343" y="502" type="line"/>
      <point x="358" y="291" type="line"/>
      <point x="653" y="587" type="line"/>
    </contour>
    <contour>
      <point x="974" y="0" type="line"/>
      <point x="1218" y="0" type="line"/>
      <point x="645" y="684" type="line"/>
      <point x="542" y="528" type="line"/>
    </contour>
    <contour>
      <point x="530.0" y="67.0" type="move" name="bottom"/>
    </contour>
    <contour>
      <point x="240.0" y="1289.0" type="move" name="cross"/>
    </contour>
    <contour>
      <point x="550.0" y="1611.0" type="move" name="top"/>
    </contour>
    <contour>
      <point x="550.0" y="1611.0" type="move" name="marktop"/>
    </contour>
    <contour>
      <point x="1046.0" y="1600.0" type="move" name="top_dd"/>
    </contour>
    <contour>
      <point x="1046.0" y="-407.0" type="move" name="bottom_dd"/>
    </contour>
    <contour>
      <point x="916.0" y="1611.0" type="move" name="top0315"/>
    </contour>
  </outline>
</glyph>
<glyph name="l" format="1">
  <advance width="560"/>
  <unicode hex="006C"/>
  <outline>
    <contour>
      <point x="380" y="1536" type="line"/>
      <point x="180" y="1536" type="line"/>
      <point x="180" y="0" type="line"/>
      <point x="380" y="0" type="line"/>
    </contour>
    <contour>
      <point x="280.0" y="1699.0" type="move" name="top"/>
    </contour>
    <contour>
      <point x="280.0" y="10.0" type="move" name="bottom"/>
    </contour>
    <contour>
      <point x="510.0" y="1536.0" type="move" name="caron"/>
    </contour>
    <contour>
      <point x="504.0" y="774.0" type="move" name="dot"/>
    </contour>
    <contour>
      <point x="600.0" y="1543.0" type="move" name="marktop"/>
    </contour>
    <contour>
      <point x="533.0" y="1600.0" type="move" name="top_dd"/>
    </contour>
    <contour>
      <point x="533.0" y="-407.0" type="move" name="bottom_dd"/>
    </contour>
    <contour>
      <point x="533.0" y="1699.0" type="move" name="top0315"/>
    </contour>
  </outline>
</glyph>
<glyph name="m" format="1">
  <advance width="2160"/>
  <unicode hex="006D"/>
  <outline>
    <contour>
      <point x="380" y="869" type="line"/>
      <point x="369" y="1082" type="line"/>
      <point x="180" y="1082" type="line"/>
      <point x="180" y="0" type="line"/>
      <point x="380" y="0" type="line"/>
    </contour>
    <contour>
      <point x="379" y="578" type="line"/>
      <point x="379" y="778"/>
      <point x="519" y="937"/>
      <point x="720" y="937" type="curve" smooth="yes"/>
      <point x="868" y="937"/>
      <point x="988" y="842"/>
      <point x="988" y="681" type="curve"/>
      <point x="988" y="0" type="line"/>
      <point x="1188" y="0" type="line"/>
      <point x="1188" y="691" type="line"/>
      <point x="1188" y="922"/>
      <point x="1017" y="1102"/>
      <point x="768" y="1102" type="curve" smooth="yes"/>
      <point x="473" y="1102"/>
      <point x="286" y="880"/>
      <point x="286" y="576" type="curve"/>
    </contour>
    <contour>
      <point x="1186" y="681" type="line"/>
      <point x="1186" y="824"/>
      <point x="1355" y="937"/>
      <point x="1508" y="937" type="curve" smooth="yes"/>
      <point x="1663" y="937"/>
      <point x="1796" y="857"/>
      <point x="1796" y="684" type="curve" smooth="yes"/>
      <point x="1796" y="0" type="line"/>
      <point x="1996" y="0" type="line"/>
      <point x="1996" y="682" type="line" smooth="yes"/>
      <point x="1996" y="962"/>
      <point x="1820" y="1102"/>
      <point x="1556" y="1102" type="curve" smooth="yes"/>
      <point x="1268" y="1102"/>
      <point x="1052" y="878"/>
      <point x="1052" y="637" type="curve"/>
    </contour>
    <contour>
      <point x="910.0" y="1290.0" type="move" name="top"/>
    </contour>
    <contour>
      <point x="895.0" y="10.0" type="move" name="bottom"/>
    </contour>
    <contour>
      <point x="910.0" y="1290.0" type="move" name="marktop"/>
    </contour>
    <contour>
      <point x="1791.0" y="1600.0" type="move" name="top_dd"/>
    </contour>
    <contour>
      <point x="1791.0" y="-407.0" type="move" name="bottom_dd"/>
    </contour>
    <contour>
      <point x="1791.0" y="1290.0" type="move" name="top0315"/>
    </contour>
  </outline>
</glyph>
<glyph name="n" format="1">
  <advance width="1403"/>
  <unicode hex="006E"/>
  <outline>
    <contour>
      <point x="380" y="851" type="line"/>
      <point x="369" y="1082" type="line"/>
      <point x="180" y="1082" type="line"/>
      <point x="180" y="0" type="line"/>
      <point x="380" y="0" type="line"/>
    </contour>
    <contour>
      <point x="380" y="578" type="line"/>
      <point x="380" y="778"/>
      <point x="543" y="937"/>
      <point x="769" y="937" type="curve" smooth="yes"/>
      <point x="947" y="937"/>
      <point x="1039" y="872"/>
      <point x="1039" y="652" type="curve"/>
      <point x="1039" y="0" type="line"/>
      <point x="1239" y="0" type="line"/>
      <point x="1239" y="650" type="line"/>
      <point x="1239" y="993"/>
      <point x="1080" y="1102"/>
      <point x="829" y="1102" type="curve" smooth="yes"/>
      <point x="517" y="1102"/>
      <point x="298" y="882"/>
      <point x="298" y="578" type="curve"/>
    </contour>
    <contour>
      <point x="615.0" y="1290.0" type="move" name="top"/>
    </contour>
    <contour>
      <point x="604.0" y="10.0" type="move" name="bottom"/>
    </contour>
    <contour>
      <point x="12.0" y="1539.0" type="move" name="caron"/>
    </contour>
    <contour>
      <point x="1038.0" y="0.0" type="move" name="right"/>
    </contour>
    <contour>
      <point x="615.0" y="1290.0" type="move" name="marktop"/>
    </contour>
    <contour>
      <point x="1175.0" y="1600.0" type="move" name="top_dd"/>
    </contour>
    <contour>
      <point x="1175.0" y="-407.0" type="move" name="bottom_dd"/>
    </contour>
    <contour>
      <point x="1175.0" y="1290.0" type="move" name="top0315"/>
    </contour>
  </outline>
</glyph>
<glyph name="o" format="1">
  <advance width="1422"/>
  <unicode hex="006F"/>
  <outline>
    <contour>
      <point x="100" y="530" type="line"/>
      <point x="100" y="217"/>
      <point x="333" y="-20"/>
      <point x="712" y="-20" type="curve" smooth="yes"/>
      <point x="1090" y="-20"/>
      <point x="1322" y="217"/>
      <point x="1322" y="530" type="curve"/>
      <point x="1322" y="551" type="line"/>
      <point x="1322" y="864"/>
      <point x="1090" y="1102"/>
      <point x="709" y="1102" type="curve" smooth="yes"/>
      <point x="333" y="1102"/>
      <point x="100" y="864"/>
      <point x="100" y="551" type="curve"/>
    </contour>
    <contour>
      <point x="300" y="551" type="line"/>
      <point x="300" y="760"/>
      <point x="433" y="942"/>
      <point x="707" y="942" type="curve" smooth="yes"/>
      <point x="983" y="942"/>
      <point x="1118" y="760"/>
      <point x="1118" y="551" type="curve"/>
      <point x="1118" y="530" type="line"/>
      <point x="1118" y="319"/>
      <point x="983" y="140"/>
      <point x="710" y="140" type="curve" smooth="yes"/>
      <point x="433" y="140"/>
      <point x="300" y="319"/>
      <point x="300" y="530" type="curve"/>
    </contour>
    <contour>
      <point x="584.0" y="1290.0" type="move" name="top"/>
    </contour>
    <contour>
      <point x="594.0" y="0.0" type="move" name="bottom"/>
    </contour>
    <contour>
      <point x="1181.0" y="1600.0" type="move" name="top_dd"/>
    </contour>
    <contour>
      <point x="1181.0" y="-407.0" type="move" name="bottom_dd"/>
    </contour>
    <contour>
      <point x="1001.0" y="654.0" type="move" name="rhotichook"/>
    </contour>
    <contour>
      <point x="1181.0" y="1290.0" type="move" name="top0315"/>
    </contour>
  </outline>
</glyph>
<glyph name="p" format="1">
  <advance width="1394"/>
  <unicode hex="0070"/>
  <outline>
    <contour>
      <point x="380" y="874" type="line"/>
      <point x="362" y="1082" type="line"/>
      <point x="180" y="1082" type="line"/>
      <point x="180" y="-416" type="line"/>
      <point x="380" y="-416" type="line"/>
    </contour>
    <contour>
      <point x="1294" y="550" type="line" smooth="yes"/>
      <point x="1294" y="879"/>
      <point x="1111" y="1102"/>
      <point x="777" y="1102" type="curve" smooth="yes"/>
      <point x="440" y="1102"/>
      <point x="268" y="901"/>
      <point x="232" y="572" type="curve"/>
      <point x="232" y="489" type="line"/>
      <point x="268" y="173"/>
      <point x="440" y="-20"/>
      <point x="781" y="-20" type="curve" smooth="yes"/>
      <point x="1108" y="-20"/>
      <point x="1294" y="214"/>
      <point x="1294" y="529" type="curve" smooth="yes"/>
    </contour>
    <contour>
      <point x="1090" y="529" type="line" smooth="yes"/>
      <point x="1090" y="284"/>
      <point x="960" y="140"/>
      <point x="717" y="140" type="curve" smooth="yes"/>
      <point x="481" y="140"/>
      <point x="381" y="267"/>
      <point x="328" y="406" type="curve"/>
      <point x="328" y="655" type="line"/>
      <point x="368" y="803"/>
      <point x="481" y="937"/>
      <point x="715" y="937" type="curve" smooth="yes"/>
      <point x="953" y="937"/>
      <point x="1090" y="786"/>
      <point x="1090" y="550" type="curve" smooth="yes"/>
    </contour>
    <contour>
      <point x="634.0" y="1280.0" type="move" name="top"/>
    </contour>
    <contour>
      <point x="235.0" y="-407.0" type="move" name="bottom"/>
    </contour>
    <contour>
      <point x="634.0" y="1280.0" type="move" name="marktop"/>
    </contour>
    <contour>
      <point x="1153.0" y="1600.0" type="move" name="top_dd"/>
    </contour>
    <contour>
      <point x="1153.0" y="-407.0" type="move" name="bottom_dd"/>
    </contour>
    <contour>
      <point x="1153.0" y="1280.0" type="move" name="top0315"/>
    </contour>
  </outline>
</glyph>
<glyph name="q" format="1">
  <advance width="1418"/>
  <unicode hex="0071"/>
  <outline>
    <contour>
      <point x="1038" y="-416" type="line"/>
      <point x="1238" y="-416" type="line"/>
      <point x="1238" y="1082" type="line"/>
      <point x="1055" y="1082" type="line"/>
      <point x="1038" y="874" type="line"/>
    </contour>
    <contour>
      <point x="100" y="529" type="line"/>
      <point x="100" y="214"/>
      <point x="297" y="-20"/>
      <point x="622" y="-20" type="curve" smooth="yes"/>
      <point x="958" y="-20"/>
      <point x="1126" y="181"/>
      <point x="1161" y="510" type="curve"/>
      <point x="1161" y="572" type="line"/>
      <point x="1126" y="901"/>
      <point x="958" y="1102"/>
      <point x="625" y="1102" type="curve" smooth="yes"/>
      <point x="295" y="1102"/>
      <point x="100" y="879"/>
      <point x="100" y="550" type="curve" smooth="yes"/>
    </contour>
    <contour>
      <point x="300" y="550" type="line"/>
      <point x="300" y="759"/>
      <point x="412" y="942"/>
      <point x="667" y="942" type="curve" smooth="yes"/>
      <point x="896" y="942"/>
      <point x="1012" y="803"/>
      <point x="1052" y="655" type="curve"/>
      <point x="1052" y="426" type="line"/>
      <point x="999" y="277"/>
      <point x="896" y="140"/>
      <point x="665" y="140" type="curve" smooth="yes"/>
      <point x="412" y="140"/>
      <point x="300" y="320"/>
      <point x="300" y="529" type="curve" smooth="yes"/>
    </contour>
    <contour>
      <point x="545.0" y="1290.0" type="move" name="top"/>
    </contour>
    <contour>
      <point x="923.0" y="-407.0" type="move" name="bottom"/>
    </contour>
    <contour>
      <point x="545.0" y="1290.0" type="move" name="marktop"/>
    </contour>
    <contour>
      <point x="1177.0" y="1600.0" type="move" name="top_dd"/>
    </contour>
    <contour>
      <point x="1177.0" y="-407.0" type="move" name="bottom_dd"/>
    </contour>
    <contour>
      <point x="1177.0" y="1290.0" type="move" name="top0315"/>
    </contour>
  </outline>
</glyph>
<glyph name="r" format="1">
  <advance width="880"/>
  <unicode hex="0072"/>
  <outline>
    <contour>
      <point x="380" y="914" type="line"/>
      <point x="374" y="1082" type="line"/>
      <point x="180" y="1082" type="line"/>
      <point x="180" y="0" type="line"/>
      <point x="380" y="0" type="line"/>
    </contour>
    <contour>
      <point x="849" y="1088" type="line"/>
      <point x="832" y="1094"/>
      <point x="773" y="1102"/>
      <point x="740" y="1102" type="curve"/>
      <point x="440" y="1102"/>
      <point x="312" y="884"/>
      <point x="312" y="628" type="curve"/>
      <point x="380" y="660" type="line"/>
      <point x="403" y="809"/>
      <point x="512" y="913"/>
      <point x="726" y="913" type="curve"/>
      <point x="773" y="913"/>
      <point x="823" y="909"/>
      <point x="847" y="905" type="curve"/>
    </contour>
    <contour>
      <point x="407.0" y="1290.0" type="move" name="top"/>
    </contour>
    <contour>
      <point x="251.0" y="10.0" type="move" name="bottom"/>
    </contour>
    <contour>
      <point x="695.0" y="1600.0" type="move" name="top_dd"/>
    </contour>
    <contour>
      <point x="695.0" y="-407.0" type="move" name="bottom_dd"/>
    </contour>
    <contour>
      <point x="695.0" y="1290.0" type="move" name="top0315"/>
    </contour>
  </outline>
</glyph>
<glyph name="s" format="1">
  <advance width="1167"/>
  <unicode hex="0073"/>
  <outline>
    <contour>
      <point x="906" y="289" type="curve" smooth="yes"/>
      <point x="906" y="202"/>
      <point x="803" y="140"/>
      <point x="612" y="140" type="curve" smooth="yes"/>
      <point x="466" y="140"/>
      <point x="297" y="189"/>
      <point x="286" y="339" type="curve"/>
      <point x="94" y="339" type="line"/>
      <point x="94" y="158"/>
      <point x="274" y="-20"/>
      <point x="607" y="-20" type="curve" smooth="yes"/>
      <point x="902" y="-20"/>
      <point x="1091" y="106"/>
      <point x="1091" y="297" type="curve"/>
      <point x="1091" y="495"/>
      <point x="948" y="571"/>
      <point x="643" y="637" type="curve" smooth="yes"/>
      <point x="398" y="690"/>
      <point x="333" y="722"/>
      <point x="333" y="800" type="curve"/>
      <point x="333" y="877"/>
      <point x="401" y="942"/>
      <point x="597" y="942" type="curve" smooth="yes"/>
      <point x="782" y="942"/>
      <point x="865" y="847"/>
      <point x="865" y="762" type="curve"/>
      <point x="1058" y="762" type="line"/>
      <point x="1058" y="948"/>
      <point x="901" y="1102"/>
      <point x="601" y="1102" type="curve" smooth="yes"/>
      <point x="320" y="1102"/>
      <point x="146" y="966"/>
      <point x="146" y="781" type="curve" smooth="yes"/>
      <point x="146" y="615"/>
      <point x="285" y="523"/>
      <point x="578" y="466" type="curve" smooth="yes"/>
      <point x="837" y="416"/>
      <point x="906" y="367"/>
    </contour>
    <contour>
      <point x="568.0" y="1290.0" type="move" name="top"/>
    </contour>
    <contour>
      <point x="568.0" y="-10.0" type="move" name="bottom"/>
    </contour>
    <contour>
      <point x="1061.0" y="1600.0" type="move" name="top_dd"/>
    </contour>
    <contour>
      <point x="1061.0" y="-407.0" type="move" name="bottom_dd"/>
    </contour>
    <contour>
      <point x="1061.0" y="1290.0" type="move" name="top0315"/>
    </contour>
  </outline>
</glyph>
<glyph name="t" format="1">
  <advance width="811"/>
  <unicode hex="0074"/>
  <outline>
    <contour>
      <point x="800" y="1082" type="line"/>
      <point x="46" y="1082" type="line"/>
      <point x="46" y="932" type="line"/>
      <point x="800" y="932" type="line"/>
    </contour>
    <contour>
      <point x="283" y="1342" type="line"/>
      <point x="283" y="270" type="line"/>
      <point x="283" y="53"/>
      <point x="409" y="-20"/>
      <point x="546" y="-20" type="curve" smooth="yes"/>
      <point x="651" y="-20"/>
      <point x="750" y="17"/>
      <point x="782" y="41" type="curve"/>
      <point x="782" y="210" type="line"/>
      <point x="751" y="182"/>
      <point x="661" y="148"/>
      <point x="601" y="148" type="curve" smooth="yes"/>
      <point x="558" y="148"/>
      <point x="483" y="165"/>
      <point x="483" y="269" type="curve"/>
      <point x="483" y="1342" type="line"/>
    </contour>
    <contour>
      <point x="457.0" y="0.0" type="move" name="bottom"/>
    </contour>
    <contour>
      <point x="546.0" y="1664.0" type="move" name="caron"/>
    </contour>
    <contour>
      <point x="299.0" y="676.0" type="move" name="cross"/>
    </contour>
    <contour>
      <point x="317.0" y="1476.0" type="move" name="top"/>
    </contour>
    <contour>
      <point x="576.0" y="1364.0" type="move" name="marktop"/>
    </contour>
    <contour>
      <point x="672.0" y="1600.0" type="move" name="top_dd"/>
    </contour>
    <contour>
      <point x="672.0" y="-407.0" type="move" name="bottom_dd"/>
    </contour>
    <contour>
      <point x="672.0" y="1476.0" type="move" name="top0315"/>
    </contour>
  </outline>
</glyph>
<glyph name="u" format="1">
  <advance width="1403"/>
  <unicode hex="0075"/>
  <outline>
    <contour>
      <point x="1023" y="250" type="line"/>
      <point x="1043" y="0" type="line"/>
      <point x="1223" y="0" type="line"/>
      <point x="1223" y="1082" type="line"/>
      <point x="1023" y="1082" type="line"/>
    </contour>
    <contour>
      <point x="1023" y="540" type="line"/>
      <point x="1023" y="318"/>
      <point x="917" y="146"/>
      <point x="613" y="146" type="curve" smooth="yes"/>
      <point x="490" y="146"/>
      <point x="364" y="200"/>
      <point x="364" y="420" type="curve"/>
      <point x="364" y="1082" type="line"/>
      <point x="164" y="1082" type="line"/>
      <point x="164" y="429" type="line"/>
      <point x="164" y="109"/>
      <point x="335" y="-20"/>
      <point x="588" y="-20" type="curve" smooth="yes"/>
      <point x="962" y="-20"/>
      <point x="1094" y="219"/>
      <point x="1094" y="543" type="curve"/>
    </contour>
    <contour>
      <point x="566.0" y="1290.0" type="move" name="top"/>
    </contour>
    <contour>
      <point x="982.0" y="0.0" type="move" name="ogonek"/>
    </contour>
    <contour>
      <point x="508.0" y="0.0" type="move" name="bottomu"/>
    </contour>
    <contour>
      <point x="1130.0" y="1600.0" type="move" name="top_dd"/>
    </contour>
    <contour>
      <point x="1130.0" y="-407.0" type="move" name="bottom_dd"/>
    </contour>
    <contour>
      <point x="920.0" y="654.0" type="move" name="rhotichook"/>
    </contour>
    <contour>
      <point x="1130.0" y="1290.0" type="move" name="top0315"/>
    </contour>
    <contour>
      <point x="563.0" y="0.0" type="move" name="bottom"/>
    </contour>
  </outline>
</glyph>
<glyph name="v" format="1">
  <advance width="1201"/>
  <unicode hex="0076"/>
  <outline>
    <contour>
      <point x="577" y="171" type="line"/>
      <point x="545" y="0" type="line"/>
      <point x="678" y="0" type="line"/>
      <point x="1183" y="1082" type="line"/>
      <point x="981" y="1082" type="line"/>
    </contour>
    <contour>
      <point x="224" y="1082" type="line"/>
      <point x="18" y="1082" type="line"/>
      <point x="527" y="0" type="line"/>
      <point x="659" y="0" type="line"/>
      <point x="639" y="166" type="line"/>
    </contour>
    <contour>
      <point x="492.0" y="1280.0" type="move" name="top"/>
    </contour>
    <contour>
      <point x="492.0" y="10.0" type="move" name="bottom"/>
    </contour>
    <contour>
      <point x="980.0" y="1600.0" type="move" name="top_dd"/>
    </contour>
    <contour>
      <point x="980.0" y="-407.0" type="move" name="bottom_dd"/>
    </contour>
    <contour>
      <point x="980.0" y="1280.0" type="move" name="top0315"/>
    </contour>
  </outline>
</glyph>
<glyph name="w" format="1">
  <advance width="1764"/>
  <unicode hex="0077"/>
  <outline>
    <contour>
      <point x="471" y="162" type="line"/>
      <point x="453" y="0" type="line"/>
      <point x="579" y="0" type="line"/>
      <point x="914" y="923" type="line"/>
      <point x="933" y="1082" type="line"/>
      <point x="802" y="1082" type="line"/>
    </contour>
    <contour>
      <point x="222" y="1082" type="line"/>
      <point x="24" y="1082" type="line"/>
      <point x="418" y="0" type="line"/>
      <point x="551" y="0" type="line"/>
      <point x="541" y="151" type="line"/>
    </contour>
    <contour>
      <point x="1236" y="158" type="line"/>
      <point x="1214" y="0" type="line"/>
      <point x="1346" y="0" type="line"/>
      <point x="1740" y="1082" type="line"/>
      <point x="1542" y="1082" type="line"/>
    </contour>
    <contour>
      <point x="962" y="1082" type="line"/>
      <point x="823" y="1082" type="line"/>
      <point x="842" y="925" type="line"/>
      <point x="1185" y="0" type="line"/>
      <point x="1311" y="0" type="line"/>
      <point x="1287" y="178" type="line"/>
    </contour>
    <contour>
      <point x="728.0" y="1290.0" type="move" name="top"/>
    </contour>
    <contour>
      <point x="731.0" y="10.0" type="move" name="bottom"/>
    </contour>
    <contour>
      <point x="728.0" y="1290.0" type="move" name="marktop"/>
    </contour>
    <contour>
      <point x="1503.0" y="1600.0" type="move" name="top_dd"/>
    </contour>
    <contour>
      <point x="1503.0" y="-407.0" type="move" name="bottom_dd"/>
    </contour>
    <contour>
      <point x="1503.0" y="1290.0" type="move" name="top0315"/>
    </contour>
  </outline>
</glyph>
<glyph name="x" format="1">
  <advance width="1154"/>
  <unicode hex="0078"/>
  <outline>
    <contour>
      <point x="264" y="1082" type="line"/>
      <point x="33" y="1082" type="line"/>
      <point x="461" y="547" type="line"/>
      <point x="24" y="0" type="line"/>
      <point x="240" y="0" type="line"/>
      <point x="569" y="412" type="line"/>
      <point x="899" y="0" type="line"/>
      <point x="1130" y="0" type="line"/>
      <point x="687" y="554" type="line"/>
      <point x="1108" y="1082" type="line"/>
      <point x="891" y="1082" type="line"/>
      <point x="577" y="691" type="line"/>
    </contour>
    <contour>
      <point x="495.0" y="10.0" type="move" name="bottom"/>
    </contour>
    <contour>
      <point x="850.0" y="0.0" type="move" name="right"/>
    </contour>
    <contour>
      <point x="492.0" y="553.0" type="move" name="cross"/>
    </contour>
    <contour>
      <point x="492.0" y="1280.0" type="move" name="top"/>
    </contour>
    <contour>
      <point x="1004.0" y="1600.0" type="move" name="top_dd"/>
    </contour>
    <contour>
      <point x="1004.0" y="-407.0" type="move" name="bottom_dd"/>
    </contour>
    <contour>
      <point x="1004.0" y="1280.0" type="move" name="top0315"/>
    </contour>
  </outline>
</glyph>
<glyph name="y" format="1">
  <advance width="1204"/>
  <unicode hex="0079"/>
  <outline>
    <contour>
      <point x="568" y="113" type="line"/>
      <point x="485" y="-92" type="line" smooth="yes"/>
      <point x="432" y="-222"/>
      <point x="375" y="-266"/>
      <point x="303" y="-266" type="curve" smooth="yes"/>
      <point x="241" y="-266"/>
      <point x="120" y="-255"/>
      <point x="83" y="-242" type="curve"/>
      <point x="83" y="-401" type="line"/>
      <point x="109" y="-411"/>
      <point x="211" y="-437"/>
      <point x="329" y="-437" type="curve" smooth="yes"/>
      <point x="506" y="-437"/>
      <point x="588" y="-272"/>
      <point x="635" y="-166" type="curve" smooth="yes"/>
      <point x="1184" y="1082" type="line"/>
      <point x="984" y="1082" type="line"/>
    </contour>
    <contour>
      <point x="227" y="1082" type="line"/>
      <point x="20" y="1082" type="line"/>
      <point x="533" y="-21" type="line"/>
      <point x="676" y="50" type="line"/>
      <point x="613" y="218" type="line"/>
    </contour>
    <contour>
      <point x="507.0" y="1290.0" type="move" name="top"/>
    </contour>
    <contour>
      <point x="711.0" y="-158.0" type="move" name="bottom"/>
    </contour>
    <contour>
      <point x="507.0" y="1290.0" type="move" name="marktop"/>
    </contour>
    <contour>
      <point x="968.0" y="1600.0" type="move" name="top_dd"/>
    </contour>
    <contour>
      <point x="968.0" y="-407.0" type="move" name="bottom_dd"/>
    </contour>
    <contour>
      <point x="737.0" y="654.0" type="move" name="rhotichook"/>
    </contour>
    <contour>
      <point x="968.0" y="1290.0" type="move" name="top0315"/>
    </contour>
  </outline>
</glyph>
<glyph name="z" format="1">
  <advance width="1120"/>
  <unicode hex="007A"/>
  <outline>
    <contour>
      <point x="1050" y="160" type="line"/>
      <point x="147" y="160" type="line"/>
      <point x="147" y="0" type="line"/>
      <point x="1050" y="0" type="line"/>
    </contour>
    <contour>
      <point x="1024" y="944" type="line"/>
      <point x="1024" y="1082" type="line"/>
      <point x="917" y="1082" type="line"/>
      <point x="70" y="144" type="line"/>
      <point x="70" y="0" type="line"/>
      <point x="172" y="0" type="line"/>
    </contour>
    <contour>
      <point x="936" y="1082" type="line"/>
      <point x="76" y="1082" type="line"/>
      <point x="76" y="921" type="line"/>
      <point x="936" y="921" type="line"/>
    </contour>
    <contour>
      <point x="496.0" y="1290.0" type="move" name="top"/>
    </contour>
    <contour>
      <point x="505.0" y="10.0" type="move" name="bottom"/>
    </contour>
    <contour>
      <point x="1001.0" y="1600.0" type="move" name="top_dd"/>
    </contour>
    <contour>
      <point x="1001.0" y="-407.0" type="move" name="bottom_dd"/>
    </contour>
    <contour>
      <point x="1001.0" y="1290.0" type="move" name="top0315"/>
    </contour>
  </outline>
</glyph>
